<?xml version="1.0" encoding="UTF-8" standalone="no"?>
<svg width="230px" height="48px" viewBox="0 0 230 48" version="1.1" xmlns="http://www.w3.org/2000/svg" xmlns:xlink="http://www.w3.org/1999/xlink">
    <!-- Generator: Sketch 3.8.1 (29687) - http://www.bohemiancoding.com/sketch -->
    <title>bt-white</title>
    <desc>Created with Sketch.</desc>
    <defs></defs>
    <g id="Page-1" stroke="none" stroke-width="1" fill="none" fill-rule="evenodd">
        <g id="Desktop" transform="translate(-601.000000, -558.000000)" fill="#FFFFFF">
            <g id="bt-white" transform="translate(603.000000, 555.000000)">
                <text id="Bolt---Themes" font-family="Easycore" font-size="72" font-weight="normal">
                    <tspan x="0.40625" y="51">Bolt   Themes</tspan>
                </text>
                <g id="flash-(3)" transform="translate(80.000000, 3.000000)">
                    <g id="Capa_1">
                        <path d="M35.0058901,18.2088791 C34.7168352,17.5604396 34.0733187,17.1428571 33.3633407,17.1428571 L19.8336703,17.1428571 L25.3988571,2.43463736 C25.6079121,1.8821978 25.5323077,1.26224176 25.1964835,0.776087912 C24.8608352,0.29010989 24.3078681,0 23.7170989,0 L10.3317802,0 C9.58417582,0 8.91446154,0.462593407 8.64984615,1.16184615 L0.164571429,23.5871648 C-0.0444835165,24.1396044 0.0311208791,24.7595604 0.366945055,25.2457143 C0.702769231,25.7316923 1.25573626,26.021978 1.84650549,26.021978 L16.8617143,25.9317802 L8.92835165,47.0315604 C8.82356044,47.3104176 8.93204396,47.6244396 9.18663736,47.7791648 C9.44123077,47.9338901 9.77002198,47.8853626 9.96923077,47.6638242 L34.701011,20.1432967 C35.1753846,19.6151209 35.2949451,18.8573187 35.0058901,18.2088791 L35.0058901,18.2088791 Z" id="Shape"></path>
                    </g>
                </g>
            </g>
        </g>
    </g>
</svg>