<?xml version="1.0" encoding="UTF-8" standalone="no"?>
<svg width="200px" height="273px" viewBox="0 0 200 273" version="1.1" xmlns="http://www.w3.org/2000/svg" xmlns:xlink="http://www.w3.org/1999/xlink">
    <!-- Generator: Sketch 3.8.1 (29687) - http://www.bohemiancoding.com/sketch -->
    <title>Shape</title>
    <desc>Created with Sketch.</desc>
    <defs></defs>
    <g id="Page-1" stroke="none" stroke-width="1" fill="none" fill-rule="evenodd">
        <g id="Desktop" transform="translate(-263.000000, -393.000000)" fill="#F05F40">
            <g id="flash-(3)" transform="translate(263.000000, 393.000000)">
                <g id="Capa_1">
                    <path d="M198.821955,103.563 C197.177955,99.875 193.517955,97.5 189.479955,97.5 L112.529955,97.5 L144.181955,13.847 C145.370955,10.705 144.940955,7.179 143.030955,4.414 C141.121955,1.65 137.976955,0 134.616955,0 L58.487955,0 C54.235955,0 50.426955,2.631 48.921955,6.608 L0.661955021,134.152 C-0.527044979,137.294 -0.097044979,140.82 1.81295502,143.585 C3.72295502,146.349 6.86795502,148 10.227955,148 L95.626955,147.487 L50.505955,267.492 C49.909955,269.078 50.526955,270.864 51.974955,271.744 C53.422955,272.624 55.292955,272.348 56.425955,271.088 L197.087955,114.565 C199.785955,111.561 200.465955,107.251 198.821955,103.563 L198.821955,103.563 Z" id="Shape"></path>
                </g>
            </g>
        </g>
    </g>
</svg>